HIERARCHY
ROOT Hips
{
	OFFSET 0.00000 0.00000 0.00000
	CHANNELS 6 Xposition Yposition Zposition Zrotation Yrotation Xrotation 
	JOINT LHipJoint
	{
		OFFSET 0 0 0
		CHANNELS 3 Zrotation Yrotation Xrotation
		JOINT LeftUpLeg
		{
			OFFSET 1.44960 -1.75505 0.85172
			CHANNELS 3 Zrotation Yrotation Xrotation
			JOINT LeftLeg
			{
				OFFSET 2.40573 -6.60971 0.00000
				CHANNELS 3 Zrotation Yrotation Xrotation
				JOINT LeftFoot
				{
					OFFSET 2.58773 -7.10974 0.00000
					CHANNELS 3 Zrotation Yrotation Xrotation
					JOINT LeftToeBase
					{
						OFFSET 0.18252 -0.50147 1.77316
						CHANNELS 3 Zrotation Yrotation Xrotation
						End Site
						{
							OFFSET 0.00000 -0.00000 0.92990
						}
					}
				}
			}
		}
	}
	JOINT RHipJoint
	{
		OFFSET 0 0 0
		CHANNELS 3 Zrotation Yrotation Xrotation
		JOINT RightUpLeg
		{
			OFFSET -1.40744 -1.75505 0.85172
			CHANNELS 3 Zrotation Yrotation Xrotation
			JOINT RightLeg
			{
				OFFSET -2.43714 -6.69600 0.00000
				CHANNELS 3 Zrotation Yrotation Xrotation
				JOINT RightFoot
				{
					OFFSET -2.51650 -6.91404 0.00000
					CHANNELS 3 Zrotation Yrotation Xrotation
					JOINT RightToeBase
					{
						OFFSET -0.25383 -0.69740 1.96384
						CHANNELS 3 Zrotation Yrotation Xrotation
						End Site
						{
							OFFSET -0.00000 -0.00000 1.04244
						}
					}
				}
			}
		}
	}
	JOINT LowerBack
	{
		OFFSET 0 0 0
		CHANNELS 3 Zrotation Yrotation Xrotation
		JOINT Spine
		{
			OFFSET 0.00579 2.14458 -0.24367
			CHANNELS 3 Zrotation Yrotation Xrotation
			JOINT Spine1
			{
				OFFSET 0.05899 2.16316 -0.04515
				CHANNELS 3 Zrotation Yrotation Xrotation
				JOINT Neck
				{
					OFFSET 0 0 0
					CHANNELS 3 Zrotation Yrotation Xrotation
					JOINT Neck1
					{
						OFFSET -0.01650 1.59577 0.24841
						CHANNELS 3 Zrotation Yrotation Xrotation
						JOINT Head
						{
							OFFSET -0.01016 1.63072 -0.17782
							CHANNELS 3 Zrotation Yrotation Xrotation
							End Site
							{
								OFFSET -0.00250 1.64111 -0.08717
							}
						}
					}
				}
				JOINT LeftShoulder
				{
					OFFSET 0 0 0
					CHANNELS 3 Zrotation Yrotation Xrotation
					JOINT LeftArm
					{
						OFFSET 3.17745 0.95174 -0.45729
						CHANNELS 3 Zrotation Yrotation Xrotation
						JOINT LeftForeArm
						{
							OFFSET 4.93485 -0.00000 0.00000
							CHANNELS 3 Zrotation Yrotation Xrotation
							JOINT LeftHand
							{
								OFFSET 3.41719 -0.00000 -0.00000
								CHANNELS 3 Zrotation Yrotation Xrotation
								JOINT LeftFingerBase
								{
									OFFSET 0 0 0
									CHANNELS 3 Zrotation Yrotation Xrotation
									JOINT LeftHandIndex1
									{
										OFFSET 0.62410 -0.00000 -0.00000
										CHANNELS 3 Zrotation Yrotation Xrotation
										End Site
										{
											OFFSET 0.50317 -0.00000 -0.00000
										}
									}
								}
								JOINT LThumb
								{
									OFFSET 0 0 0
									CHANNELS 3 Zrotation Yrotation Xrotation
									End Site
									{
										OFFSET 0.51085 -0.00000 0.51085
									}
								}
							}
						}
					}
				}
				JOINT RightShoulder
				{
					OFFSET 0 0 0
					CHANNELS 3 Zrotation Yrotation Xrotation
					JOINT RightArm
					{
						OFFSET -2.87924 1.13038 -0.75204
						CHANNELS 3 Zrotation Yrotation Xrotation
						JOINT RightForeArm
						{
							OFFSET -5.22034 -0.00000 0.00000
							CHANNELS 3 Zrotation Yrotation Xrotation
							JOINT RightHand
							{
								OFFSET -3.41809 -0.00000 -0.00000
								CHANNELS 3 Zrotation Yrotation Xrotation
								JOINT RightFingerBase
								{
									OFFSET 0 0 0
									CHANNELS 3 Zrotation Yrotation Xrotation
									JOINT RightHandIndex1
									{
										OFFSET -0.77534 -0.00000 -0.00000
										CHANNELS 3 Zrotation Yrotation Xrotation
										End Site
										{
											OFFSET -0.62510 -0.00000 -0.00000
										}
									}
								}
								JOINT RThumb
								{
									OFFSET 0 0 0
									CHANNELS 3 Zrotation Yrotation Xrotation
									End Site
									{
										OFFSET -0.63464 -0.00000 0.63464
									}
								}
							}
						}
					}
				}
			}
		}
	}
}
MOTION
Frames: 14
Frame Time: .0083333
0.9558 17.6060 -16.2793 -2.6757 6.7202 5.6091 0.0000 0.0000 0.0000 -16.4355 -6.6463 2.5430 5.1873 13.5916 41.6255 0.2034 -3.2125 10.3269 0.2075 2.9326 8.0911 0.0000 0.0000 0.0000 25.0168 6.2657 -19.2546 -0.9702 -6.2708 17.5723 0.1070 -7.5946 -8.0065 -0.8128 -5.7531 16.0697 1.4956 -1.9704 4.4118 4.3270 -2.4646 0.5778 3.7650 -1.2290 -1.7507 -3.7503 -1.2681 -15.6630 -0.5761 -0.6414 22.0698 0.3461 -0.6774 9.5853 -0.0000 0.0000 0.0000 -89.4340 5.7191 25.3665 13.3251 -21.7616 -2.5726 -0.0000 -0.0000 14.8668 -5.2915 41.7803 -3.5312 -7.1250 0.0000 -0.0000 -52.5105 64.0902 -27.8508 -0.0000 0.0000 0.0000 85.5240 -3.5739 -32.5242 -5.4326 9.3126 -0.4428 0.0000 0.0000 18.6798 -15.2813 15.5912 -4.1999 7.1250 -0.0000 -0.0000 8.3155 -13.9672 6.1287
0.9429 17.6012 -16.1607 -2.7100 7.2014 5.5080 0.0000 0.0000 0.0000 -16.1629 -7.0699 1.5539 5.6901 14.1212 43.7250 0.1781 -3.3311 9.9163 0.1816 2.7447 7.5687 0.0000 0.0000 0.0000 25.2279 5.4934 -18.8764 -0.9594 -6.2369 17.4734 0.0845 -7.2880 -8.1501 -0.8636 -5.9258 16.5692 1.6491 -2.0562 4.2523 4.3022 -2.5808 0.6256 3.6510 -1.2886 -1.6138 -3.7364 -1.4989 -15.9324 -0.7477 -0.9125 22.0091 0.2479 -0.8211 9.6188 0.0000 0.0000 0.0000 -89.2536 5.3811 26.2564 13.7538 -22.3817 -2.7337 -0.0000 -0.0000 14.3827 -5.5119 42.7009 -3.7443 -7.1250 0.0000 -0.0000 -54.1801 64.6020 -29.6027 0.0000 0.0000 0.0000 85.6048 -3.0134 -31.1748 -5.4658 9.3683 -0.4482 0.0000 0.0000 17.4911 -15.4113 15.4452 -4.1987 7.1250 -0.0000 -0.0000 8.2260 -14.1042 6.0372
0.9249 17.6101 -16.0372 -2.8477 7.6015 5.2649 0.0000 0.0000 0.0000 -15.6425 -7.0865 0.4975 6.1932 14.6130 45.7523 0.1391 -3.5515 9.2690 0.2525 3.2334 8.9291 0.0000 0.0000 0.0000 25.7023 4.2642 -18.4447 -0.9422 -6.1822 17.3140 0.0536 -6.6744 -8.0355 -0.6366 -5.1048 14.2077 1.8505 -1.9924 4.4149 4.1708 -2.4745 0.4892 3.4064 -1.2352 -1.8652 -3.3367 -1.6108 -15.4429 -0.8971 -1.1607 21.9223 0.1017 -0.9174 9.4954 -0.0000 0.0000 0.0000 -88.8533 5.2185 27.0590 13.9567 -22.6728 -2.8114 -0.0000 -0.0000 14.5406 -5.6322 42.8050 -3.8337 -7.1250 0.0000 -0.0000 -54.4558 64.6309 -29.8305 -0.0000 0.0000 0.0000 86.0175 -2.9229 -33.0166 -5.3479 9.1703 -0.4292 0.0000 0.0000 19.1037 -15.4341 16.5562 -4.4983 7.1250 -0.0000 -0.0000 8.2299 -12.9696 6.2390
0.8958 17.6190 -15.9138 -3.2904 7.7856 5.0655 0.0000 0.0000 0.0000 -14.7066 -6.9007 -1.0257 6.6828 15.0588 47.6641 0.1076 -4.2254 9.1742 0.2492 3.2121 8.8699 0.0000 0.0000 0.0000 26.3891 4.2204 -17.7542 -0.9355 -6.1608 17.2518 0.0501 -6.8784 -8.4860 -0.6681 -5.2272 14.5578 2.1093 -1.9884 4.4314 4.3476 -2.4527 0.5131 3.4437 -1.2256 -1.8539 -3.8851 -1.4843 -15.2588 -0.3701 -0.9810 21.6642 0.3998 -0.8163 9.3748 0.0000 0.0000 0.0000 -88.8295 4.8511 27.5529 14.2705 -23.1201 -2.9335 -0.0000 -0.0000 14.0953 -5.3349 43.1357 -3.6533 -7.1250 0.0000 -0.0000 -54.7458 64.9183 -30.3779 0.0000 0.0000 0.0000 86.0379 -2.5345 -30.9933 -5.5159 9.4524 -0.4564 0.0000 0.0000 17.3015 -15.2002 16.4468 -4.3988 7.1250 -0.0000 -0.0000 8.3836 -13.1036 6.3343
0.8737 17.6171 -15.7998 -3.7987 7.7013 4.7228 0.0000 0.0000 0.0000 -13.8474 -6.6900 -1.8259 7.1371 15.4462 49.3909 0.0049 -5.3262 7.7533 0.3429 3.7629 10.4107 0.0000 0.0000 0.0000 27.1037 4.5818 -16.7022 -0.9103 -6.0797 17.0158 0.0577 -7.2853 -8.9460 -0.5871 -4.9061 13.6408 2.5403 -1.8480 4.6053 4.3577 -2.2315 0.4649 3.2077 -1.1176 -2.0269 -3.6167 -1.7114 -15.3805 -0.5402 -1.3152 22.0921 0.2521 -0.9737 9.5502 0.0000 -0.0000 0.0000 -88.6170 4.5247 27.6559 14.4003 -23.3041 -2.9846 -0.0000 -0.0000 14.5385 -5.4226 42.4963 -3.6692 -7.1250 0.0000 -0.0000 -53.7682 64.5016 -29.1966 0.0000 -0.0000 0.0000 86.2822 -2.5111 -30.0033 -5.5607 9.5275 -0.4638 0.0000 0.0000 16.6165 -15.2034 16.3552 -4.3760 7.1250 -0.0000 -0.0000 8.3798 -13.1967 6.3148
0.8549 17.6288 -15.6716 -3.6929 7.7477 4.6456 0.0000 0.0000 0.0000 -13.6461 -6.5461 -3.1313 7.5339 15.7655 50.8657 0.0201 -5.2796 8.1343 0.3968 4.0443 11.2013 0.0000 0.0000 0.0000 27.1476 4.5459 -16.0027 -0.8984 -6.0409 16.9033 0.0542 -7.3713 -9.1838 -0.6190 -5.0352 14.0090 2.2729 -1.7808 4.4756 4.3460 -2.1588 0.3772 3.3383 -1.0792 -2.0378 -3.5298 -1.8679 -15.2395 -0.7787 -1.5027 22.2047 0.1318 -1.0815 9.5642 -0.0000 0.0000 0.0000 -88.5251 4.4529 28.2503 14.8537 -23.9419 -3.1663 -0.0000 -0.0000 13.9277 -4.1779 42.2656 -2.8127 -7.1250 0.0000 -0.0000 -52.2933 64.7154 -28.4293 -0.0000 0.0000 0.0000 86.1679 -2.1542 -29.5233 -5.4603 9.3591 -0.4473 0.0000 0.0000 16.2703 -15.6199 16.3236 -4.4930 7.1250 -0.0000 -0.0000 8.1013 -13.1887 6.1019
0.8330 17.6281 -15.5395 -3.8857 7.9695 4.2513 0.0000 0.0000 0.0000 -13.1029 -6.3604 -3.8186 7.8935 16.0404 52.1783 -0.0817 -6.0809 5.8045 0.5381 4.7002 13.0554 0.0000 0.0000 0.0000 27.5790 4.1056 -15.1520 -0.8870 -6.0033 16.7941 0.0292 -7.3243 -9.7563 -0.7489 -5.5277 15.4201 2.3796 -1.8142 4.3584 4.3746 -2.2168 0.6491 3.2999 -1.1095 -1.6925 -3.8178 -1.8183 -15.5375 -0.5408 -1.4002 22.3517 0.2723 -1.0331 9.6754 -0.0000 0.0000 0.0000 -88.6089 3.5016 28.0282 15.1008 -24.2864 -3.2673 -0.0000 -0.0000 13.8612 -4.0797 42.6504 -2.7666 -7.1250 0.0000 -0.0000 -52.8358 64.9856 -29.1155 -0.0000 0.0000 0.0000 86.2786 -1.5973 -27.3777 -5.6378 9.6566 -0.4766 0.0000 0.0000 14.7524 -15.7932 16.5759 -4.6132 7.1250 -0.0000 -0.0000 7.9913 -12.9143 6.0638
0.8220 17.6360 -15.4215 -3.5107 7.6967 4.0166 0.0000 0.0000 0.0000 -13.3835 -6.1341 -4.5928 8.1790 16.2494 53.2049 -0.0847 -5.6465 4.5190 0.8097 5.7426 16.0393 0.0000 0.0000 0.0000 27.3171 3.8814 -14.5049 -0.8940 -6.0264 16.8610 -0.0107 -7.0720 -10.3331 -0.7824 -5.6470 15.7636 1.9335 -1.5577 4.5616 4.2182 -1.8813 0.4617 3.3803 -0.9386 -2.0033 -4.0055 -1.9704 -15.3122 -0.4456 -1.5910 22.9927 0.3117 -1.1337 9.8671 0.0000 -0.0000 0.0000 -88.5143 3.5019 28.5681 15.4513 -24.7710 -3.4128 -0.0000 -0.0000 13.2783 -4.2557 43.1055 -2.9110 -7.1250 0.0000 -0.0000 -53.7520 65.2159 -30.0248 0.0000 -0.0000 0.0000 86.1893 -1.3767 -29.4442 -5.4044 9.2652 -0.4382 0.0000 0.0000 16.6268 -15.6991 17.1699 -4.7432 7.1250 -0.0000 -0.0000 8.0682 -12.3177 6.2248
0.7896 17.6283 -15.3046 -4.1281 7.6775 3.7722 0.0000 0.0000 0.0000 -12.2623 -5.8379 -5.7499 8.4794 16.4608 54.2715 -0.0761 -5.1038 3.4316 0.7714 5.6083 15.6520 0.0000 0.0000 0.0000 28.2232 4.1716 -13.7453 -0.8981 -6.0398 16.8999 -0.0182 -7.4639 -11.0359 -0.8613 -5.9180 16.5468 2.3315 -1.3842 4.4501 4.2589 -1.6407 0.5971 3.1777 -0.8214 -1.8220 -3.4896 -2.0483 -15.5946 -0.7988 -1.7278 23.4360 0.0788 -1.1971 10.0721 0.0000 -0.0000 0.0000 -88.2564 2.9720 28.8716 15.9179 -25.4093 -3.6107 -0.0000 -0.0000 12.5931 -2.7036 42.5165 -1.8278 -7.1250 0.0000 -0.0000 -51.3866 65.3028 -28.4755 0.0000 -0.0000 0.0000 86.5999 -0.7477 -28.8648 -5.4966 9.4200 -0.4532 0.0000 0.0000 16.1691 -16.1933 16.7552 -4.7855 7.1250 -0.0000 -0.0000 7.7296 -12.6909 5.8978
0.7784 17.6336 -15.1782 -3.6781 7.4140 3.6377 0.0000 0.0000 0.0000 -12.6591 -5.5580 -6.5870 8.7009 16.6114 55.0500 -0.0650 -4.5224 1.8347 0.6921 5.3184 14.8191 0.0000 0.0000 0.0000 27.9249 3.6725 -13.1710 -0.9004 -6.0473 16.9216 -0.0640 -6.9067 -11.2503 -0.9269 -6.1335 17.1721 1.6461 -1.3081 4.4485 4.2389 -1.5718 0.5478 3.5394 -0.7827 -1.8564 -3.7189 -1.9922 -15.5795 -0.8777 -1.5633 23.7383 0.1096 -1.1546 10.1789 0.0000 -0.0000 0.0000 -88.6231 2.5891 28.3495 16.1933 -25.7820 -3.7296 -0.0000 -0.0000 12.3552 -1.7366 42.4268 -1.1718 -7.1250 0.0000 -0.0000 -50.3650 65.5289 -28.0265 0.0000 -0.0000 0.0000 86.2499 -0.4361 -28.1126 -5.4249 9.2996 -0.4415 0.0000 0.0000 15.9983 -16.3858 16.9692 -4.9051 7.1250 -0.0000 -0.0000 7.6077 -12.4520 5.8413
0.7582 17.6391 -15.0729 -3.8903 7.3686 3.4232 0.0000 0.0000 0.0000 -12.1417 -5.5051 -7.6908 8.9372 16.7671 55.8727 -0.0610 -4.5437 0.3501 0.6708 5.2377 14.5876 0.0000 0.0000 0.0000 28.3052 3.9371 -12.4826 -0.9063 -6.0667 16.9781 -0.0628 -7.2612 -11.6705 -0.7907 -5.6762 15.8479 1.8737 -1.1267 4.5352 4.1259 -1.3154 0.5187 3.2814 -0.6560 -1.9553 -4.1283 -1.9722 -15.2823 -0.0083 -1.6653 23.7452 0.4742 -1.1354 10.1367 -0.0000 0.0000 0.0000 -88.4187 2.4342 28.4538 16.8270 -26.6292 -4.0095 -0.0000 -0.0000 11.6990 -1.0967 42.1147 -0.7355 -7.1250 0.0000 -0.0000 -49.2645 65.5133 -27.2620 -0.0000 0.0000 0.0000 86.5405 0.0887 -29.5962 -5.3701 9.2075 -0.4327 0.0000 0.0000 17.2209 -16.9559 16.9190 -5.0705 7.1250 -0.0000 -0.0000 7.2278 -12.4435 5.5460
0.7441 17.6272 -14.9575 -4.3032 7.0368 3.2275 0.0000 0.0000 0.0000 -11.4888 -5.1309 -8.7443 9.1051 16.8749 56.4528 -0.0441 -4.3952 -0.8887 0.6685 5.2287 14.5621 0.0000 0.0000 0.0000 28.9161 3.8518 -12.0899 -0.9412 -6.1791 17.3050 -0.1071 -6.8638 -12.0256 -0.7560 -5.5533 15.4935 2.1941 -0.9406 4.6419 4.1435 -1.0354 0.3056 3.1082 -0.5179 -2.2523 -3.9381 -1.9841 -14.9018 -0.2905 -1.6762 23.8598 0.3445 -1.1575 10.1011 0.0000 -0.0000 0.0000 -88.4593 2.4213 28.5027 17.2942 -27.2439 -4.2211 -0.0000 -0.0000 10.5266 0.1061 42.7095 0.0719 -7.1250 0.0000 -0.0000 -49.1645 66.2601 -27.9954 0.0000 -0.0000 0.0000 86.6927 -0.2031 -27.1158 -5.5590 9.5247 -0.4635 0.0000 0.0000 14.6282 -17.2058 16.4250 -5.0040 7.1250 -0.0000 -0.0000 7.0458 -12.9253 5.3326
0.7343 17.6175 -14.8345 -4.0553 6.9602 2.8940 0.0000 0.0000 0.0000 -11.7100 -5.1022 -9.3558 9.2345 16.9563 56.8978 -0.0215 -4.5670 -2.3339 0.5046 4.5535 12.6393 0.0000 0.0000 0.0000 28.8419 3.5405 -11.3281 -0.9640 -6.2513 17.5154 -0.1175 -6.8952 -12.2522 -0.6472 -5.1464 14.3265 1.9313 -0.8957 4.5481 4.0298 -1.0020 0.4266 3.1316 -0.4999 -2.0735 -3.9333 -2.0936 -14.8989 -0.4496 -1.7874 24.1429 0.2718 -1.2299 10.2040 0.0000 0.0000 0.0000 -88.4757 2.1257 28.4325 17.7844 -27.8803 -4.4480 -0.0000 -0.0000 9.4935 1.4502 41.9363 0.9693 -7.1250 0.0000 -0.0000 -46.6074 66.1459 -26.1451 0.0000 0.0000 0.0000 86.6399 0.2929 -26.3102 -5.5775 9.5556 -0.4665 0.0000 0.0000 14.0085 -17.6653 16.9684 -5.3101 7.1250 -0.0000 -0.0000 6.7588 -12.3160 5.1987
0.7215 17.6091 -14.7311 -3.8510 6.6379 2.9680 0.0000 0.0000 0.0000 -11.8270 -5.0892 -10.4115 9.3504 17.0280 57.2942 0.0138 -4.3698 -3.5637 0.5283 4.6580 12.9356 0.0000 0.0000 0.0000 28.7184 3.7648 -11.1017 -0.9999 -6.3633 17.8423 -0.1545 -6.6803 -12.6613 -0.7265 -5.4461 15.1853 1.6454 -0.7478 4.3799 3.9543 -0.8319 0.5075 3.1993 -0.4136 -1.8996 -4.3534 -2.2216 -15.2581 0.1715 -2.0019 24.0962 0.5299 -1.2930 10.2719 -0.0000 0.0000 0.0000 -88.6488 1.4204 28.0818 18.3164 -28.5605 -4.6996 -0.0000 -0.0000 8.8232 1.3134 42.0017 0.8789 -7.1250 0.0000 -0.0000 -46.8449 66.1497 -26.3075 -0.0000 0.0000 0.0000 86.5378 1.2148 -27.8919 -5.4419 9.3282 -0.4443 0.0000 0.0000 15.6639 -18.2133 17.2641 -5.5773 7.1250 -0.0000 -0.0000 6.4074 -11.9493 4.9739
